<svg width="51" height="51" viewBox="0 0 51 51" fill="none" xmlns="http://www.w3.org/2000/svg">
<path d="M46.1051 38.2203L29.3921 9.09227C29.0277 8.45188 28.4992 7.91922 27.8606 7.54863C27.222 7.17804 26.4961 6.98279 25.757 6.98279C25.0179 6.98279 24.292 7.17804 23.6534 7.54863C23.0148 7.91922 22.4864 8.45188 22.122 9.09227L5.409 38.2203C5.04065 38.8556 4.8475 39.5766 4.84913 40.3102C4.85076 41.0439 5.04711 41.764 5.41829 42.3977C5.78946 43.0314 6.32225 43.5561 6.96267 43.9186C7.60308 44.2811 8.32835 44.4686 9.06496 44.462H42.4909C43.224 44.4613 43.9439 44.2684 44.5785 43.9029C45.2131 43.5374 45.7399 43.012 46.1061 42.3796C46.4723 41.7471 46.665 41.0299 46.6648 40.2998C46.6647 39.5697 46.4716 38.8525 46.1051 38.2203Z" stroke="#3379BA" stroke-width="2" stroke-linecap="round" stroke-linejoin="round"/>
<path d="M25.7778 19.4951V27.8174" stroke="#3379BA" stroke-width="2" stroke-linecap="round" stroke-linejoin="round"/>
<path d="M25.7778 36.1398H25.7987" stroke="#3379BA" stroke-width="2" stroke-linecap="round" stroke-linejoin="round"/>
</svg>
