<svg width="51" height="51" viewBox="0 0 51 51" fill="none" xmlns="http://www.w3.org/2000/svg">
<path d="M25.7779 42.0953C30.2105 42.0953 34.4615 40.3417 37.5958 37.2202C40.73 34.0988 42.4909 29.8651 42.4909 25.4507C42.4909 21.0363 40.73 16.8027 37.5958 13.6812C34.4615 10.5598 30.2105 8.80615 25.7779 8.80615C21.3454 8.80615 17.0943 10.5598 13.9601 13.6812C10.8258 16.8027 9.06494 21.0363 9.06494 25.4507C9.06494 29.8651 10.8258 34.0988 13.9601 37.2202C17.0943 40.3417 21.3454 42.0953 25.7779 42.0953Z" stroke="#3379BA" stroke-width="2" stroke-linecap="round" stroke-linejoin="round"/>
<path d="M25.7779 29.6118C26.886 29.6118 27.9487 29.1734 28.7323 28.3931C29.5159 27.6127 29.9561 26.5543 29.9561 25.4507C29.9561 24.3471 29.5159 23.2887 28.7323 22.5083C27.9487 21.728 26.886 21.2896 25.7779 21.2896C24.6697 21.2896 23.607 21.728 22.8234 22.5083C22.0398 23.2887 21.5996 24.3471 21.5996 25.4507C21.5996 26.5543 22.0398 27.6127 22.8234 28.3931C23.607 29.1734 24.6697 29.6118 25.7779 29.6118Z" stroke="#3379BA" stroke-width="2" stroke-linecap="round" stroke-linejoin="round"/>
<path d="M25.7778 4.64502V8.80616" stroke="#3379BA" stroke-width="2" stroke-linecap="round" stroke-linejoin="round"/>
<path d="M25.7778 46.2565V42.0953" stroke="#3379BA" stroke-width="2" stroke-linecap="round" stroke-linejoin="round"/>
<path d="M36.2234 43.4685L34.1343 39.8691" stroke="#3379BA" stroke-width="2" stroke-linecap="round" stroke-linejoin="round"/>
<path d="M23.689 21.8514L15.3325 7.43298" stroke="#3379BA" stroke-width="2" stroke-linecap="round" stroke-linejoin="round"/>
<path d="M43.8695 35.8536L40.2554 33.7731" stroke="#3379BA" stroke-width="2" stroke-linecap="round" stroke-linejoin="round"/>
<path d="M7.68604 15.0479L11.3002 17.1284" stroke="#3379BA" stroke-width="2" stroke-linecap="round" stroke-linejoin="round"/>
<path d="M29.9561 25.4508H46.669" stroke="#3379BA" stroke-width="2" stroke-linecap="round" stroke-linejoin="round"/>
<path d="M4.88672 25.4508H9.06496" stroke="#3379BA" stroke-width="2" stroke-linecap="round" stroke-linejoin="round"/>
<path d="M43.8695 15.0479L40.2554 17.1284" stroke="#3379BA" stroke-width="2" stroke-linecap="round" stroke-linejoin="round"/>
<path d="M7.68604 35.8536L11.3002 33.7731" stroke="#3379BA" stroke-width="2" stroke-linecap="round" stroke-linejoin="round"/>
<path d="M36.2234 7.43298L34.1343 11.0324" stroke="#3379BA" stroke-width="2" stroke-linecap="round" stroke-linejoin="round"/>
<path d="M23.689 29.0502L15.3325 43.4685" stroke="#3379BA" stroke-width="2" stroke-linecap="round" stroke-linejoin="round"/>
</svg>
