<svg width="36" height="37" viewBox="0 0 36 37" fill="none" xmlns="http://www.w3.org/2000/svg">
<path d="M29.9821 6.60498H6.41654C4.79767 6.60498 3.48631 7.93048 3.48631 9.55112L3.47217 27.2244C3.47217 28.8451 4.79767 30.1706 6.41654 30.1706H29.9821C31.601 30.1706 32.9265 28.8451 32.9265 27.2244V9.55112C32.9265 7.93048 31.601 6.60498 29.9821 6.60498ZM29.3918 12.8649L18.9805 19.3757C18.7456 19.5204 18.4752 19.5969 18.1993 19.5969C17.9235 19.5969 17.6531 19.5204 17.4182 19.3757L7.00683 12.8649C6.86121 12.7809 6.73399 12.6685 6.63277 12.5343C6.53155 12.4002 6.4584 12.247 6.41769 12.0839C6.37697 11.9208 6.36953 11.7512 6.39581 11.5852C6.42208 11.4192 6.48154 11.2602 6.57062 11.1176C6.6597 10.9751 6.77659 10.852 6.9143 10.7556C7.05201 10.6592 7.20772 10.5916 7.37215 10.5567C7.53657 10.5219 7.70634 10.5205 7.87131 10.5527C8.03628 10.5849 8.19307 10.65 8.33233 10.7441L18.1993 16.9156L28.0664 10.7441C28.2056 10.65 28.3624 10.5849 28.5274 10.5527C28.6923 10.5205 28.8621 10.5219 29.0265 10.5567C29.191 10.5916 29.3467 10.6592 29.4844 10.7556C29.6221 10.852 29.739 10.9751 29.8281 11.1176C29.9171 11.2602 29.9766 11.4192 30.0029 11.5852C30.0291 11.7512 30.0217 11.9208 29.981 12.0839C29.9403 12.247 29.8671 12.4002 29.7659 12.5343C29.6647 12.6685 29.5375 12.7809 29.3918 12.8649Z" fill="#3379BA"/>
</svg>
