<svg width="50" height="50" viewBox="0 0 50 50" fill="none" xmlns="http://www.w3.org/2000/svg">
<g clip-path="url(#clip0_67_11240)">
<path d="M50 25.2042C50 11.6848 38.8063 0.723633 25 0.723633C11.1937 0.723633 0 11.6848 0 25.2042C0 37.424 9.14167 47.5508 21.0938 49.3868V32.2811H14.7458V25.2021H21.0938V19.8124C21.0938 13.6779 24.827 10.2873 30.5375 10.2873C33.2708 10.2873 36.1333 10.7668 36.1333 10.7668V16.791H32.9792C29.873 16.791 28.9042 18.678 28.9042 20.6141V25.2042H35.8375L34.7292 32.2831H28.9042V49.3888C40.8583 47.5508 50 37.422 50 25.2042Z" fill="#3379BA"/>
</g>
<defs>
<clipPath id="clip0_67_11240">
<rect width="50" height="48.961" fill="white" transform="translate(0 0.57373)"/>
</clipPath>
</defs>
</svg>
