<svg width="50" height="44" viewBox="0 0 50 44" fill="none" xmlns="http://www.w3.org/2000/svg">
<path d="M6.25 39.5327H31.25" stroke="#3379BA" stroke-width="5" stroke-linecap="round" stroke-linejoin="round"/>
<path d="M8.3335 16.1724H29.1668" stroke="#3379BA" stroke-width="5" stroke-linecap="round" stroke-linejoin="round"/>
<path d="M29.1668 39.5324V7.18762C29.1668 6.23446 28.7278 5.32035 27.9464 4.64637C27.165 3.97239 26.1052 3.59375 25.0002 3.59375H12.5002C11.3951 3.59375 10.3353 3.97239 9.55388 4.64637C8.77248 5.32035 8.3335 6.23446 8.3335 7.18762V39.5324" stroke="#3379BA" stroke-width="5" stroke-linecap="round" stroke-linejoin="round"/>
<path d="M29.1665 23.3603H33.3332C34.4382 23.3603 35.498 23.739 36.2794 24.4129C37.0608 25.0869 37.4998 26.001 37.4998 26.9542V30.5481C37.4998 31.5012 37.9388 32.4153 38.7202 33.0893C39.5016 33.7633 40.5614 34.1419 41.6665 34.1419C42.7716 34.1419 43.8314 33.7633 44.6128 33.0893C45.3942 32.4153 45.8332 31.5012 45.8332 30.5481V17.664C45.8336 17.1898 45.7252 16.7202 45.5143 16.2823C45.3033 15.8443 44.9939 15.4467 44.604 15.1124L37.4998 8.98486" stroke="#3379BA" stroke-width="5" stroke-linecap="round" stroke-linejoin="round"/>
</svg>
