<svg width="51" height="51" viewBox="0 0 51 51" fill="none" xmlns="http://www.w3.org/2000/svg">
<path d="M31.9028 44.4041V36.0707C31.9028 34.9657 32.3418 33.9058 33.1232 33.1244C33.9046 32.343 34.9644 31.9041 36.0695 31.9041H44.4028" stroke="#3379BA" stroke-width="2" stroke-linecap="round" stroke-linejoin="round"/>
<path d="M15.2363 8.98737V13.154C15.6858 14.4321 16.5383 15.5295 17.6655 16.281C18.7928 17.0325 20.1337 17.3974 21.4863 17.3207C22.5914 17.3207 23.6512 17.7597 24.4326 18.5411C25.214 19.3225 25.653 20.3823 25.653 21.4874C25.653 22.5924 26.092 23.6522 26.8734 24.4336C27.6548 25.215 28.7146 25.654 29.8197 25.654C30.9247 25.654 31.9845 25.215 32.7659 24.4336C33.5473 23.6522 33.9863 22.5924 33.9863 21.4874C33.9863 20.3823 34.4253 19.3225 35.2067 18.5411C35.9881 17.7597 37.0479 17.3207 38.153 17.3207H44.403" stroke="#3379BA" stroke-width="2" stroke-linecap="round" stroke-linejoin="round"/>
<path d="M6.90283 23.5707H11.0695C12.1746 23.5707 13.2344 24.0097 14.0158 24.7911C14.7972 25.5725 15.2362 26.6323 15.2362 27.7374V29.8207C15.2362 30.9258 15.6752 31.9856 16.4566 32.767C17.238 33.5484 18.2978 33.9874 19.4028 33.9874C20.5079 33.9874 21.5677 34.4264 22.3491 35.2078C23.1305 35.9892 23.5695 37.049 23.5695 38.1541V46.4874" stroke="#3379BA" stroke-width="2" stroke-linecap="round" stroke-linejoin="round"/>
<path d="M25.6527 46.4874C37.1586 46.4874 46.486 37.16 46.486 25.6541C46.486 14.1481 37.1586 4.82074 25.6527 4.82074C14.1467 4.82074 4.81934 14.1481 4.81934 25.6541C4.81934 37.16 14.1467 46.4874 25.6527 46.4874Z" stroke="#3379BA" stroke-width="2" stroke-linecap="round" stroke-linejoin="round"/>
</svg>
