<svg width="50" height="50" viewBox="0 0 50 50" fill="none" xmlns="http://www.w3.org/2000/svg">
<g clip-path="url(#clip0_67_11242)">
<path d="M25 0.57373C18.2083 0.57373 17.3605 0.604331 14.6938 0.720614C12.0312 0.843016 10.2188 1.25306 8.625 1.85896C6.98125 2.48321 5.58542 3.32167 4.19583 4.68237C2.80625 6.04309 1.94792 7.40788 1.3125 9.01951C0.69375 10.5801 0.272917 12.355 0.15 14.9622C0.025 17.5735 0 18.4037 0 25.0543C0 31.7048 0.03125 32.535 0.15 35.1463C0.275 37.7515 0.69375 39.5284 1.3125 41.089C1.95 42.6966 2.80625 44.0654 4.19583 45.4262C5.58542 46.7848 6.97917 47.6273 8.625 48.2495C10.2208 48.8534 12.0333 49.2675 14.6938 49.3879C17.3605 49.5103 18.2083 49.5348 25 49.5348C31.7917 49.5348 32.6395 49.5042 35.3063 49.3879C37.9667 49.2655 39.7812 48.8534 41.375 48.2495C43.0167 47.6253 44.4145 46.7848 45.8042 45.4262C47.1917 44.0654 48.052 42.7027 48.6875 41.089C49.3042 39.5284 49.727 37.7515 49.85 35.1463C49.975 32.535 50 31.7048 50 25.0543C50 18.4037 49.9688 17.5735 49.85 14.9622C49.725 12.357 49.3042 10.5781 48.6875 9.01951C48.05 7.40992 47.1917 6.04309 45.8042 4.68237C44.4145 3.32167 43.023 2.48118 41.375 1.85896C39.7812 1.25306 37.9667 0.840977 35.3063 0.720614C32.6395 0.598211 31.7917 0.57373 25 0.57373ZM25 4.98022C31.673 4.98022 32.4688 5.01286 35.1042 5.12507C37.5417 5.23727 38.8645 5.63304 39.7438 5.97169C40.9145 6.41437 41.7438 6.94479 42.623 7.79957C43.4958 8.65639 44.0375 9.47036 44.4895 10.6169C44.8313 11.4778 45.2395 12.7732 45.35 15.16C45.4688 17.7427 45.4958 18.518 45.4958 25.0543C45.4958 31.5905 45.4645 32.3678 45.3417 34.9485C45.2145 37.3354 44.8083 38.6307 44.4645 39.4916C43.998 40.6381 43.4667 41.4501 42.5917 42.311C41.7188 43.1657 40.875 43.6962 39.7167 44.1388C38.8417 44.4734 37.498 44.8732 35.0605 44.9814C32.4062 45.0977 31.625 45.1241 24.9375 45.1241C18.248 45.1241 17.4667 45.0935 14.8146 44.9733C12.375 44.8487 11.0312 44.4509 10.1562 44.1143C8.97083 43.6575 8.15625 43.1372 7.28333 42.2804C6.40625 41.4256 5.84583 40.5994 5.40833 39.4652C5.06458 38.6083 4.66042 37.2925 4.53333 34.9057C4.43958 32.3352 4.40625 31.5416 4.40625 25.0236C4.40625 18.5037 4.43958 17.7081 4.53333 15.107C4.66042 12.7202 5.06458 11.4064 5.40833 10.5495C5.84583 9.38672 6.40625 8.5911 7.28333 7.73225C8.15625 6.87746 8.97083 6.32665 10.1562 5.90028C11.0312 5.56164 12.3458 5.16383 14.7833 5.04143C17.4395 4.94962 18.2208 4.91902 24.9062 4.91902L25 4.98022ZM25 12.4835C17.9062 12.4835 12.1625 18.114 12.1625 25.0543C12.1625 32.0006 17.9125 37.625 25 37.625C32.0938 37.625 37.8375 31.9945 37.8375 25.0543C37.8375 18.1079 32.0875 12.4835 25 12.4835ZM25 33.2144C20.3958 33.2144 16.6667 29.5628 16.6667 25.0543C16.6667 20.5457 20.3958 16.8941 25 16.8941C29.6042 16.8941 33.3333 20.5457 33.3333 25.0543C33.3333 29.5628 29.6042 33.2144 25 33.2144ZM41.3458 11.9878C41.3458 13.6096 40 14.9254 38.3458 14.9254C36.6895 14.9254 35.3458 13.6076 35.3458 11.9878C35.3458 10.368 36.6917 9.05215 38.3458 9.05215C39.998 9.05011 41.3458 10.368 41.3458 11.9878Z" fill="#3379BA"/>
</g>
<defs>
<clipPath id="clip0_67_11242">
<rect width="50" height="48.961" fill="white" transform="translate(0 0.57373)"/>
</clipPath>
</defs>
</svg>
