<svg width="36" height="37" viewBox="0 0 36 37" fill="none" xmlns="http://www.w3.org/2000/svg">
<path d="M18.1993 3.63525C12.0136 3.63525 6.4165 8.37701 6.4165 15.7114C6.4165 20.3949 10.0254 25.9036 17.2273 32.2501C17.4994 32.485 17.8469 32.6142 18.2064 32.6142C18.5658 32.6142 18.9133 32.485 19.1855 32.2501C26.3732 25.9036 29.9821 20.3949 29.9821 15.7114C29.9821 8.37701 24.385 3.63525 18.1993 3.63525ZM18.1993 18.3624C16.5787 18.3624 15.2532 17.0369 15.2532 15.4163C15.2532 13.7956 16.5787 12.4701 18.1993 12.4701C19.8199 12.4701 21.1454 13.7956 21.1454 15.4163C21.1454 17.0369 19.8199 18.3624 18.1993 18.3624Z" fill="#3379BA"/>
</svg>
