<svg width="51" height="50" viewBox="0 0 51 50" fill="none" xmlns="http://www.w3.org/2000/svg">
<path d="M40.402 22.9427H11.1543C8.84674 22.9427 6.97607 24.8058 6.97607 27.1039V41.6679C6.97607 43.966 8.84674 45.829 11.1543 45.829H40.402C42.7096 45.829 44.5802 43.966 44.5802 41.6679V27.1039C44.5802 24.8058 42.7096 22.9427 40.402 22.9427Z" stroke="#3379BA" stroke-width="2" stroke-linecap="round" stroke-linejoin="round"/>
<path d="M15.3325 22.9427V14.6204C15.3325 11.8614 16.433 9.21537 18.392 7.26446C20.3509 5.31354 23.0078 4.21753 25.7781 4.21753C28.5485 4.21753 31.2053 5.31354 33.1643 7.26446C35.1232 9.21537 36.2237 11.8614 36.2237 14.6204V22.9427" stroke="#3379BA" stroke-width="2" stroke-linecap="round" stroke-linejoin="round"/>
</svg>
