<svg width="51" height="51" viewBox="0 0 51 51" fill="none" xmlns="http://www.w3.org/2000/svg">
<path d="M42.4909 21.2915C42.4909 33.7749 25.7779 46.2584 25.7779 46.2584C25.7779 46.2584 9.06494 33.7749 9.06494 21.2915C9.06494 16.8771 10.8258 12.6435 13.9601 9.522C17.0943 6.40053 21.3454 4.64691 25.7779 4.64691C30.2105 4.64691 34.4615 6.40053 37.5958 9.522C40.73 12.6435 42.4909 16.8771 42.4909 21.2915Z" stroke="#3379BA" stroke-width="2" stroke-linecap="round" stroke-linejoin="round"/>
<path d="M25.7781 27.5332C29.2395 27.5332 32.0455 24.7387 32.0455 21.2915C32.0455 17.8443 29.2395 15.0498 25.7781 15.0498C22.3167 15.0498 19.5107 17.8443 19.5107 21.2915C19.5107 24.7387 22.3167 27.5332 25.7781 27.5332Z" stroke="#3379BA" stroke-width="2" stroke-linecap="round" stroke-linejoin="round"/>
</svg>
