<svg width="51" height="51" viewBox="0 0 51 51" fill="none" xmlns="http://www.w3.org/2000/svg">
<path d="M42.3197 21.199C42.3197 33.699 25.653 46.199 25.653 46.199C25.653 46.199 8.98633 33.699 8.98633 21.199C8.98633 16.7787 10.7423 12.5395 13.8679 9.4139C16.9935 6.2883 21.2327 4.53235 25.653 4.53235C30.0733 4.53235 34.3125 6.2883 37.4381 9.4139C40.5637 12.5395 42.3197 16.7787 42.3197 21.199Z" stroke="#3379BA" stroke-width="2" stroke-linecap="round" stroke-linejoin="round"/>
<path d="M25.6528 27.4491C29.1046 27.4491 31.9028 24.6509 31.9028 21.1991C31.9028 17.7473 29.1046 14.9491 25.6528 14.9491C22.2011 14.9491 19.4028 17.7473 19.4028 21.1991C19.4028 24.6509 22.2011 27.4491 25.6528 27.4491Z" stroke="#3379BA" stroke-width="2" stroke-linecap="round" stroke-linejoin="round"/>
</svg>
