<svg width="51" height="51" viewBox="0 0 51 51" fill="none" xmlns="http://www.w3.org/2000/svg">
<path d="M38.3128 16.9872C41.7741 16.9872 44.5801 14.1926 44.5801 10.7454C44.5801 7.29823 41.7741 4.50372 38.3128 4.50372C34.8514 4.50372 32.0454 7.29823 32.0454 10.7454C32.0454 14.1926 34.8514 16.9872 38.3128 16.9872Z" stroke="#3379BA" stroke-width="2" stroke-linecap="round" stroke-linejoin="round"/>
<path d="M13.2434 31.5512C16.7048 31.5512 19.5108 28.7567 19.5108 25.3095C19.5108 21.8623 16.7048 19.0677 13.2434 19.0677C9.78207 19.0677 6.97607 21.8623 6.97607 25.3095C6.97607 28.7567 9.78207 31.5512 13.2434 31.5512Z" stroke="#3379BA" stroke-width="2" stroke-linecap="round" stroke-linejoin="round"/>
<path d="M38.3128 46.1151C41.7741 46.1151 44.5801 43.3206 44.5801 39.8734C44.5801 36.4262 41.7741 33.6317 38.3128 33.6317C34.8514 33.6317 32.0454 36.4262 32.0454 39.8734C32.0454 43.3206 34.8514 46.1151 38.3128 46.1151Z" stroke="#3379BA" stroke-width="2" stroke-linecap="round" stroke-linejoin="round"/>
<path d="M18.6538 28.4511L32.9225 36.7318" stroke="#3379BA" stroke-width="2" stroke-linecap="round" stroke-linejoin="round"/>
<path d="M32.9016 13.8871L18.6538 22.1678" stroke="#3379BA" stroke-width="2" stroke-linecap="round" stroke-linejoin="round"/>
</svg>
