<svg width="50" height="50" viewBox="0 0 50 50" fill="none" xmlns="http://www.w3.org/2000/svg">
<path d="M43.7498 12.5V8.33333C43.7498 7.08333 42.9165 6.25 41.6665 6.25H37.4998C36.9473 6.25 36.4174 6.46949 36.0267 6.86019C35.636 7.25089 35.4165 7.7808 35.4165 8.33333V12.5C35.4165 13.75 36.2498 14.5833 37.4998 14.5833H41.6665C42.9165 14.5833 43.7498 13.75 43.7498 12.5Z" stroke="#4486C3" stroke-width="5" stroke-linecap="round" stroke-linejoin="round"/>
<path d="M14.5833 41.6665V37.4998C14.5833 36.2498 13.75 35.4165 12.5 35.4165H8.33333C7.7808 35.4165 7.25089 35.636 6.86019 36.0267C6.46949 36.4174 6.25 36.9473 6.25 37.4998V41.6665C6.25 42.9165 7.08333 43.7498 8.33333 43.7498H12.5C13.75 43.7498 14.5833 42.9165 14.5833 41.6665Z" stroke="#4486C3" stroke-width="5" stroke-linecap="round" stroke-linejoin="round"/>
<path d="M10.4165 35.4165C10.4165 28.7861 13.0504 22.4272 17.7388 17.7388C22.4272 13.0504 28.7861 10.4165 35.4165 10.4165" stroke="#4486C3" stroke-width="5" stroke-linecap="round" stroke-linejoin="round"/>
</svg>
