<svg width="36" height="36" viewBox="0 0 36 36" fill="none" xmlns="http://www.w3.org/2000/svg">
<path d="M28.857 22.9572L25.1156 22.5296C24.6759 22.478 24.2303 22.5268 23.8121 22.6722C23.394 22.8176 23.0142 23.0558 22.7014 23.369L19.9903 26.0784C15.81 23.952 12.4122 20.5542 10.2859 16.3739L13.0093 13.6487C13.6438 13.016 13.9531 12.1323 13.8488 11.2328L13.4229 7.52137C13.3392 6.80279 12.9942 6.14007 12.4535 5.65939C11.9129 5.1787 11.2143 4.9136 10.4909 4.91455H7.94417C6.27934 4.91455 4.89552 6.30014 4.99803 7.9632C5.77919 20.5413 15.8371 30.5851 28.401 31.3662C30.0641 31.4687 31.4497 30.0849 31.4497 28.4201V25.8733C31.4533 25.1531 31.1906 24.4569 30.712 23.9186C30.2334 23.3803 29.5728 23.0379 28.857 22.9572Z" fill="#3379BA"/>
</svg>
