<svg width="50" height="50" viewBox="0 0 50 50" fill="none" xmlns="http://www.w3.org/2000/svg">
<path d="M48.9542 13.1934C48.6717 12.1515 48.1147 11.2006 47.3388 10.4358C46.563 9.67107 45.5955 9.11934 44.5333 8.8359C40.6355 7.80566 25 7.80566 25 7.80566C25 7.80566 9.36458 7.80566 5.46458 8.8359C4.40294 9.11984 3.43603 9.67177 2.66058 10.4365C1.88513 11.2012 1.32832 12.1519 1.04583 13.1934C0 17.0369 0 25.0543 0 25.0543C0 25.0543 0 33.0716 1.04583 36.9151C1.3283 37.957 1.88536 38.9079 2.66123 39.6727C3.43709 40.4374 4.40453 40.9891 5.46667 41.2726C9.36458 42.3028 25 42.3028 25 42.3028C25 42.3028 40.6355 42.3028 44.5355 41.2726C45.5977 40.9894 46.5652 40.4377 47.3411 39.673C48.117 38.9081 48.6739 37.957 48.9563 36.9151C50 33.0716 50 25.0543 50 25.0543C50 25.0543 50 17.0369 48.9542 13.1934ZM19.8855 32.3331V17.7754L32.9542 25.0543L19.8855 32.3331Z" fill="#3379BA"/>
</svg>
